# xmcd CD database file
#
# Track frame offsets:
#	151
#	37638
#	60590
#	80228
#	90571
#	115910
#	144890
#	160765
#
# Disc length: 2545 seconds
#
# Revision: 1
# Processed by: cddbd v1.4PL0 Copyright (c) Steve Scherf et al.
# Submitted via: Feurio! 1.65 - http://www.feurio.com
#
DISCID=5809ef08
DTITLE=Booker T. and The M.G.'s - Runaway
DYEAR=1900
DGENRE=blues
TTITLE0=The Cool Dude
TTITLE1=The Fox
TTITLE2=The Hitchhiker
TTITLE3=Sidwalk Baby
TTITLE4=Never Gonna Leave Again
TTITLE5=The Runnaway
TTITLE6=Back Home
TTITLE7=The Cool Dude (Reprise)
EXTD=
EXTT0=
EXTT1=
EXTT2=
EXTT3=
EXTT4=
EXTT5=
EXTT6=
EXTT7=
PLAYORDER=
